<svg width="70" height="70" viewBox="0 0 70 70" fill="none" xmlns="http://www.w3.org/2000/svg">
<circle cx="35" cy="35" r="35" fill="#242424"/>
<g clip-path="url(#clip0_35_103)">
<path d="M39.875 51.25V41.5C39.875 41.0691 39.7038 40.6557 39.399 40.351C39.0943 40.0462 38.681 39.875 38.25 39.875H31.75C31.319 39.875 30.9057 40.0462 30.601 40.351C30.2962 40.6557 30.125 41.0691 30.125 41.5V51.25C30.125 51.681 29.9538 52.0943 29.649 52.3991C29.3443 52.7038 28.931 52.875 28.5 52.875H18.75C18.319 52.875 17.9057 52.7038 17.601 52.3991C17.2962 52.0943 17.125 51.681 17.125 51.25V32.4691C17.125 32.2426 17.1724 32.0187 17.264 31.8116C17.3557 31.6045 17.4896 31.4189 17.6572 31.2666L33.9072 15.9225C34.2064 15.6502 34.5964 15.4993 35.001 15.4993C35.4056 15.4993 35.7956 15.6502 36.0948 15.9225L52.3448 31.2666C52.5124 31.4189 52.6464 31.6045 52.738 31.8116C52.8297 32.0187 52.877 32.2426 52.877 32.4691V51.25C52.877 51.681 52.7058 52.0943 52.4011 52.3991C52.0963 52.7038 51.683 52.875 51.252 52.875H41.5C41.069 52.875 40.6557 52.7038 40.351 52.3991C40.0462 52.0943 39.875 51.681 39.875 51.25Z" stroke="white" stroke-width="2" stroke-linecap="round" stroke-linejoin="round"/>
</g>
<defs>
<clipPath id="clip0_35_103">
<rect width="52" height="52" fill="white" transform="translate(9 9)"/>
</clipPath>
</defs>
</svg>
