<svg width="70" height="70" viewBox="0 0 70 70" fill="none" xmlns="http://www.w3.org/2000/svg">
<circle cx="35" cy="35" r="35" fill="#242424"/>
<g clip-path="url(#clip0_44_319)">
<path d="M35 23.5C35 21.7761 35.6848 20.1228 36.9038 18.9038C38.1228 17.6848 39.7761 17 41.5 17H54.5C54.931 17 55.3443 17.1712 55.649 17.476C55.9538 17.7807 56.125 18.194 56.125 18.625V44.625C56.125 45.056 55.9538 45.4693 55.649 45.774C55.3443 46.0788 54.931 46.25 54.5 46.25H41.5C39.7761 46.25 38.1228 46.9348 36.9038 48.1538C35.6848 49.3728 35 51.0261 35 52.75" stroke="white" stroke-width="2" stroke-linecap="round" stroke-linejoin="round"/>
<path d="M13.875 44.625C13.875 45.056 14.0462 45.4693 14.351 45.774C14.6557 46.0788 15.069 46.25 15.5 46.25H28.5C30.2239 46.25 31.8772 46.9348 33.0962 48.1538C34.3152 49.3728 35 51.0261 35 52.75V23.5C35 21.7761 34.3152 20.1228 33.0962 18.9038C31.8772 17.6848 30.2239 17 28.5 17H15.5C15.069 17 14.6557 17.1712 14.351 17.476C14.0462 17.7807 13.875 18.194 13.875 18.625V44.625Z" stroke="white" stroke-width="2" stroke-linecap="round" stroke-linejoin="round"/>
</g>
<defs>
<clipPath id="clip0_44_319">
<rect width="52" height="52" fill="white" transform="translate(9 9)"/>
</clipPath>
</defs>
</svg>
