<svg width="70" height="70" viewBox="0 0 70 70" fill="none" xmlns="http://www.w3.org/2000/svg">
<circle cx="35" cy="35" r="35" fill="#242424"/>
<g clip-path="url(#clip0_35_59)">
<path d="M16.3125 38.875V50.25H19.5625C21.0709 50.25 22.5176 49.6508 23.5842 48.5842C24.6508 47.5176 25.25 46.0709 25.25 44.5625C25.25 43.0541 24.6508 41.6074 23.5842 40.5408C22.5176 39.4742 21.0709 38.875 19.5625 38.875H16.3125Z" stroke="white" stroke-width="2" stroke-linecap="round" stroke-linejoin="round"/>
<path d="M52.875 48.8017C52.4604 49.2517 51.9583 49.6122 51.3995 49.8613C50.8406 50.1103 50.2368 50.2426 49.625 50.25C46.9316 50.25 44.75 47.7028 44.75 44.5625C44.75 41.4222 46.9316 38.875 49.625 38.875C50.2368 38.8824 50.8406 39.0147 51.3995 39.2637C51.9583 39.5128 52.4604 39.8733 52.875 40.3233" stroke="white" stroke-width="2" stroke-linecap="round" stroke-linejoin="round"/>
<path d="M18.75 30.75V16.125C18.75 15.694 18.9212 15.2807 19.226 14.976C19.5307 14.6712 19.944 14.5 20.375 14.5H39.875L51.25 25.875V30.75" stroke="white" stroke-width="2" stroke-linecap="round" stroke-linejoin="round"/>
<path d="M39.875 14.5V25.875H51.25" stroke="white" stroke-width="2" stroke-linecap="round" stroke-linejoin="round"/>
<path d="M35 50.25C37.6924 50.25 39.875 47.7036 39.875 44.5625C39.875 41.4214 37.6924 38.875 35 38.875C32.3076 38.875 30.125 41.4214 30.125 44.5625C30.125 47.7036 32.3076 50.25 35 50.25Z" stroke="white" stroke-width="2" stroke-linecap="round" stroke-linejoin="round"/>
</g>
<defs>
<clipPath id="clip0_35_59">
<rect width="52" height="52" fill="white" transform="translate(9 8)"/>
</clipPath>
</defs>
</svg>
