<svg width="51" height="51" viewBox="0 0 51 51" fill="none" xmlns="http://www.w3.org/2000/svg">
<path d="M25.5 51C39.5833 51 51 39.5833 51 25.5C51 11.4167 39.5833 0 25.5 0C11.4167 0 0 11.4167 0 25.5C0 39.5833 11.4167 51 25.5 51Z" fill="#DE353B"/>
<mask id="mask0_1_60" style="mask-type:luminance" maskUnits="userSpaceOnUse" x="8" y="8" width="35" height="35">
<path d="M42.1647 8.83447H8.83398V42.1652H42.1647V8.83447Z" fill="white"/>
</mask>
<g mask="url(#mask0_1_60)">
<path d="M25.499 37.9989C32.402 37.9989 37.998 32.4029 37.998 25.4999C37.998 18.5969 32.402 13.0008 25.499 13.0008C18.596 13.0008 13 18.5969 13 25.4999C13 32.4029 18.596 37.9989 25.499 37.9989Z" stroke="#F5F5F5" stroke-width="2" stroke-linecap="round" stroke-linejoin="round"/>
<path d="M30.7079 20.2919H28.6248C27.796 20.2919 27.0012 20.6211 26.4152 21.2071C25.8292 21.7931 25.5 22.5879 25.5 23.4166V37.9988" stroke="#F5F5F5" stroke-width="2" stroke-linecap="round" stroke-linejoin="round"/>
<path d="M21.332 27.583H29.6647" stroke="#F5F5F5" stroke-width="2" stroke-linecap="round" stroke-linejoin="round"/>
</g>
</svg>
