<svg width="42" height="42" viewBox="0 0 42 42" fill="none" xmlns="http://www.w3.org/2000/svg">
<path d="M13.4768 34.4687C16.6913 36.3291 20.4726 36.957 24.1159 36.2353C27.7591 35.5136 31.0156 33.4916 33.2781 30.5462C35.5406 27.6009 36.6547 23.9332 36.4128 20.2271C36.1709 16.521 34.5894 13.0293 31.9632 10.4031C29.3369 7.77685 25.8453 6.19535 22.1391 5.95342C18.433 5.71149 14.7653 6.82564 11.82 9.08815C8.87465 11.3507 6.85264 14.6071 6.13095 18.2503C5.40926 21.8936 6.03716 25.675 7.89756 28.8894L5.90339 34.8433C5.82846 35.068 5.81758 35.3091 5.87198 35.5396C5.92639 35.7701 6.04392 35.981 6.2114 36.1484C6.37889 36.3159 6.58971 36.4335 6.82024 36.4879C7.05076 36.5423 7.29189 36.5314 7.51658 36.4565L13.4768 34.4687Z" stroke="white" stroke-width="2" fill="green" stroke-linecap="round" stroke-linejoin="round"/>
  <path d="M12.2129 17.3947C12.2129 16.0418 12.7503 14.7444 13.7069 13.7878C14.6636 12.8311 15.961 12.2937 17.3139 12.2937L19.8644 17.3947L17.9005 20.3389C18.6795 22.2004 20.1597 23.6806 22.0212 24.4596L24.9654 22.4957L30.0664 25.0462C30.0664 26.3991 29.529 27.6965 28.5724 28.6532C27.6157 29.6098 26.3183 30.1472 24.9654 30.1472C21.5832 30.1472 18.3396 28.8037 15.948 26.4121C13.5565 24.0205 12.2129 20.7769 12.2129 17.3947Z" stroke="green" stroke-width="2" fill="white" stroke-linecap="round" stroke-linejoin="round"/>
</svg>
