<svg width="51" height="51" viewBox="0 0 51 51" fill="none" xmlns="http://www.w3.org/2000/svg">
<path d="M25.5 51C39.5833 51 51 39.5833 51 25.5C51 11.4167 39.5833 0 25.5 0C11.4167 0 0 11.4167 0 25.5C0 39.5833 11.4167 51 25.5 51Z" fill="#DE353B"/>
<mask id="mask0_1_50" style="mask-type:luminance" maskUnits="userSpaceOnUse" x="9" y="8" width="34" height="35">
<path d="M42.7252 8.83447H9.39453V42.1652H42.7252V8.83447Z" fill="white"/>
</mask>
<g mask="url(#mask0_1_50)">
<path d="M18.7695 22.3751C18.7695 21.2701 19.2085 20.2104 19.9898 19.429C20.7712 18.6477 21.8309 18.2087 22.9359 18.2087L25.019 22.3751L23.415 24.7798C24.0513 26.3002 25.2602 27.5092 26.7806 28.1455L29.1854 26.5414L33.3517 28.6246C33.3517 29.7296 32.9128 30.7893 32.1314 31.5706C31.3501 32.352 30.2904 32.7909 29.1854 32.7909C26.4229 32.7909 23.7736 31.6935 21.8203 29.7402C19.8669 27.7868 18.7695 25.1375 18.7695 22.3751Z" stroke="#F5F5F5" stroke-width="2" stroke-linecap="round" stroke-linejoin="round"/>
<path d="M19.8017 36.3206C22.4272 37.8401 25.5157 38.3529 28.4914 37.7635C31.4671 37.174 34.1268 35.5225 35.9748 33.1168C37.8227 30.7112 38.7327 27.7156 38.5351 24.6885C38.3375 21.6615 37.0458 18.8096 34.9008 16.6646C32.7558 14.5196 29.9039 13.2278 26.8768 13.0302C23.8498 12.8326 20.8542 13.7426 18.4485 15.5906C16.0428 17.4385 14.3913 20.0983 13.8019 23.074C13.2124 26.0496 13.7253 29.1381 15.2448 31.7636L13.616 36.6265C13.5548 36.81 13.5459 37.007 13.5904 37.1953C13.6348 37.3836 13.7308 37.5558 13.8676 37.6926C14.0044 37.8293 14.1766 37.9253 14.3649 37.9698C14.5531 38.0142 14.7501 38.0053 14.9336 37.9441L19.8017 36.3206Z" stroke="#F5F5F5" stroke-width="2" stroke-linecap="round" stroke-linejoin="round"/>
</g>
</svg>
