<svg id="Layer_1" xmlns="http://www.w3.org/2000/svg" x="0px" y="0px"
	 width="100%" viewBox="0 0 200 200">
<path fill="#DC353B" opacity="1.000000" stroke="none"
	d="
M140.294830,15.410013
	C142.701645,15.048074 144.682953,14.789398 146.663956,14.528481
	C154.859085,13.449118 154.997437,13.550094 154.836014,21.527784
	C154.684448,29.018940 154.302353,36.510826 154.374374,43.999001
	C154.414719,48.195217 152.701004,49.856815 148.641571,50.431992
	C132.153137,52.768242 115.719864,55.499004 99.221184,57.754581
	C94.717995,58.370224 92.943054,60.021740 92.943085,64.687088
	C92.943169,77.519745 90.944504,76.961327 105.013062,75.530769
	C117.107117,74.300987 129.162430,72.693184 141.251556,71.409790
	C144.307907,71.085327 147.427979,71.361191 150.557251,71.361191
	C150.557251,80.402306 150.573395,89.038803 150.548630,97.675179
	C150.539764,100.768211 148.847778,101.787315 145.837448,102.179329
	C129.654465,104.286682 113.524406,106.812866 97.325348,108.775917
	C93.068916,109.291733 91.654823,111.004463 91.389923,114.975311
	C90.480873,128.601776 89.238060,142.206680 88.405121,155.837082
	C88.177025,159.569702 86.715897,161.121216 83.124481,161.603790
	C68.433708,163.577805 53.765667,165.720993 39.088688,167.797867
	C36.740364,168.130173 34.616058,167.975220 34.334423,164.947495
	C34.064205,162.042542 35.670803,160.697403 38.394054,160.343765
	C49.625198,158.885193 60.834148,157.221161 72.093262,156.029510
	C76.615631,155.550858 78.405273,153.816635 78.551331,149.202576
	C78.978134,135.720078 80.100807,122.254997 80.321960,108.772781
	C80.415001,103.099976 82.706139,100.586990 87.912193,99.859718
	C99.621239,98.224007 111.324760,96.548714 123.031746,94.898186
	C127.482460,94.270699 131.941208,93.698738 136.387878,93.044289
	C141.839432,92.241943 140.148239,87.993309 140.098358,84.796921
	C140.041473,81.150780 137.199707,81.844269 134.925461,82.157852
	C119.747742,84.250648 104.581886,86.429848 89.401649,88.503952
	C81.906036,89.528084 81.652206,89.163162 82.103073,81.824776
	C82.644005,73.020355 83.178017,64.210869 83.431915,55.395420
	C83.559990,50.948666 85.696808,49.375443 89.852020,48.886856
	C106.060753,46.980968 122.251144,44.909657 138.424271,42.721786
	C140.543411,42.435116 144.081879,41.387299 144.283981,40.225845
	C144.977905,36.237980 144.696350,32.015945 144.190262,27.957542
	C144.119446,27.389734 140.648041,26.728342 138.869019,26.972345
	C123.359901,29.099522 107.884705,31.473330 92.379921,33.633823
	C90.090157,33.952885 86.824821,36.039066 85.893166,31.755650
	C84.851105,26.964573 86.859383,23.182892 90.914780,22.574322
	C107.219009,20.127645 123.548828,17.851446 140.294830,15.410013
z"/>
</svg>
