<svg width="70" height="70" viewBox="0 0 70 70" fill="none" xmlns="http://www.w3.org/2000/svg">
<circle cx="35" cy="35" r="35" fill="#242424"/>
<g clip-path="url(#clip0_35_57)">
<path d="M12.25 33.375H57.75" stroke="white" stroke-width="2" stroke-linecap="round" stroke-linejoin="round"/>
<path d="M52.875 52.875H48C47.569 52.875 47.1557 52.7038 46.851 52.399C46.5462 52.0943 46.375 51.681 46.375 51.25V46.375H23.625V51.25C23.625 51.681 23.4538 52.0943 23.149 52.399C22.8443 52.7038 22.431 52.875 22 52.875H17.125C16.694 52.875 16.2807 52.7038 15.976 52.399C15.6712 52.0943 15.5 51.681 15.5 51.25V33.375L21.5714 19.7148C21.6991 19.4277 21.9073 19.1837 22.1709 19.0124C22.4344 18.8412 22.742 18.75 23.0562 18.75H46.9438C47.258 18.75 47.5656 18.8412 47.8291 19.0124C48.0927 19.1837 48.3009 19.4277 48.4286 19.7148L54.5 33.375V51.25C54.5 51.681 54.3288 52.0943 54.024 52.399C53.7193 52.7038 53.306 52.875 52.875 52.875Z" stroke="white" stroke-width="2" stroke-linecap="round" stroke-linejoin="round"/>
</g>
<defs>
<clipPath id="clip0_35_57">
<rect width="52" height="52" fill="white" transform="translate(9 9)"/>
</clipPath>
</defs>
</svg>
