<svg width="17" height="27" viewBox="0 0 17 27" fill="none" xmlns="http://www.w3.org/2000/svg">
<path d="M18.0449 1.61249L21.4022 8.53249C21.4835 8.70043 21.6162 8.84599 21.786 8.95349C21.9559 9.06099 22.1565 9.12633 22.3662 9.14249L30.9594 9.78499C31.1874 9.80084 31.4049 9.87483 31.5843 9.9976C31.7636 10.1204 31.8969 10.2864 31.9671 10.4747C32.0374 10.663 32.0415 10.8651 31.9789 11.0553C31.9163 11.2456 31.7899 11.4156 31.6156 11.5437L25.0962 16.4625C24.9377 16.5829 24.8199 16.7381 24.7553 16.9118C24.6906 17.0854 24.6816 17.271 24.7291 17.4487L26.683 24.7662C26.7347 24.9574 26.7201 25.1574 26.6413 25.3414C26.5624 25.5255 26.4226 25.6853 26.2394 25.8011C26.0562 25.917 25.8376 25.9836 25.611 25.9927C25.3843 26.0018 25.1595 25.9531 24.9647 25.8525L17.5796 21.9775C17.4001 21.8831 17.1942 21.8332 16.9841 21.8332C16.7741 21.8332 16.5682 21.8831 16.3887 21.9775L9.00364 25.8525C8.80878 25.9531 8.58401 26.0018 8.35733 25.9927C8.13066 25.9836 7.9121 25.917 7.72889 25.8011C7.54569 25.6853 7.40593 25.5255 7.32705 25.3414C7.24816 25.1574 7.23363 24.9574 7.28527 24.7662L9.23921 17.4487C9.2867 17.271 9.27765 17.0854 9.21302 16.9118C9.14839 16.7381 9.03058 16.5829 8.87212 16.4625L2.35273 11.5437C2.17843 11.4156 2.052 11.2456 1.98942 11.0553C1.92684 10.8651 1.93093 10.663 2.00118 10.4747C2.07142 10.2864 2.20466 10.1204 2.38403 9.9976C2.5634 9.87483 2.78085 9.80084 3.00886 9.78499L11.6021 9.14249C11.8118 9.12633 12.0124 9.06099 12.1823 8.95349C12.3521 8.84599 12.4848 8.70043 12.5661 8.53249L15.9234 1.61249C16.013 1.43358 16.1612 1.28125 16.3497 1.17424C16.5382 1.06723 16.7587 1.01022 16.9841 1.01022C17.2096 1.01022 17.4301 1.06723 17.6186 1.17424C17.8071 1.28125 17.9553 1.43358 18.0449 1.61249Z" stroke="white" stroke-width="2" stroke-linecap="round" stroke-linejoin="round"/>
</svg>
