<svg width="51" height="51" viewBox="0 0 51 51" fill="none" xmlns="http://www.w3.org/2000/svg">
<path d="M25.5 51C39.5833 51 51 39.5833 51 25.5C51 11.4167 39.5833 0 25.5 0C11.4167 0 0 11.4167 0 25.5C0 39.5833 11.4167 51 25.5 51Z" fill="#DE353B"/>
<mask id="mask0_1_29" style="mask-type:luminance" maskUnits="userSpaceOnUse" x="8" y="8" width="34" height="35">
<path d="M41.9459 8.83447H8.61523V42.1652H41.9459V8.83447Z" fill="white"/>
</mask>
<g mask="url(#mask0_1_29)">
<path d="M25.2802 30.7077C28.1564 30.7077 30.4881 28.3761 30.4881 25.4998C30.4881 22.6235 28.1564 20.2919 25.2802 20.2919C22.4039 20.2919 20.0723 22.6235 20.0723 25.4998C20.0723 28.3761 22.4039 30.7077 25.2802 30.7077Z" stroke="#F5F5F5" stroke-width="2" stroke-miterlimit="10"/>
<path d="M31.5298 13.0008H19.0308C15.5792 13.0008 12.7812 15.7989 12.7812 19.2504V31.7494C12.7812 35.2009 15.5792 37.9989 19.0308 37.9989H31.5298C34.9813 37.9989 37.7793 35.2009 37.7793 31.7494V19.2504C37.7793 15.7989 34.9813 13.0008 31.5298 13.0008Z" stroke="#F5F5F5" stroke-width="2" stroke-linecap="round" stroke-linejoin="round"/>
<path d="M32.0507 20.2919C32.9135 20.2919 33.613 19.5924 33.613 18.7295C33.613 17.8666 32.9135 17.1671 32.0507 17.1671C31.1878 17.1671 30.4883 17.8666 30.4883 18.7295C30.4883 19.5924 31.1878 20.2919 32.0507 20.2919Z" fill="#F5F5F5"/>
</g>
</svg>
